# AST/ASF file generated using VICON BodyLanguage
# -----------------------------------------------
:version 1.10
:name VICON
:units
  mass 1.0
  length 0.45
  angle deg
:documentation
   .ast/.asf automatically generated from VICON data using
   VICON BodyBuilder and BodyLanguage model FoxedUp or BRILLIANT.MOD
:root
   order TX TY TZ RX RY RZ
   axis XYZ
   position 0 0 0  
   orientation 0 0 0 
:bonedata
  begin
     id 1 
     name lhipjoint
     direction 0.576517 -0.752066 0.319413 
     length 2.45433 
     axis 0 0 0  XYZ
  end
  begin
     id 2 
     name lfemur
     direction 0.34202 -0.939693 0  
     length 7.54459  
     axis 0 0 20  XYZ
    dof rx ry rz
    limits (-160.0 20.0)
           (-70.0 70.0)
           (-60.0 70.0)
  end
  begin
     id 3 
     name ltibia
     direction 0.34202 -0.939693 0   
     length 7.73986   
     axis 0 0 20   XYZ
    dof rx
    limits (-10.0 170.0)
  end
  begin
     id 4 
     name lfoot
     direction 0.090693 -0.249177 0.964202   
     length 2.28437   
     axis -90 7.62852e-016 20   XYZ
    dof rx rz
    limits (-45.0 90.0)
           (-70.0 20.0)
  end
  begin
     id 5 
     name ltoes
     direction 1.5356e-011 -4.21928e-011 1   
     length 1.14243   
     axis -90 7.62852e-016 20   XYZ
    dof rx
    limits (-90.0 20.0)
  end
  begin
     id 6 
     name rhipjoint
     direction -0.573937 -0.753736 0.320122   
     length 2.44889  
     axis 0 0 0  XYZ 
  end
  begin
     id 7 
     name rfemur
     direction -0.34202 -0.939693 0   
     length 7.50166   
     axis 0 0 -20   XYZ
    dof rx ry rz
    limits (-160.0 20.0)
           (-70.0 70.0)
           (-70.0 60.0)
  end
  begin
     id 8 
     name rtibia
     direction -0.34202 -0.939693 0   
     length 7.54266   
     axis 0 0 -20   XYZ
    dof rx
    limits (-10.0 170.0)
 end
 begin
     id 9 
     name rfoot
     direction -0.114017 -0.31326 0.942798   
     length 2.34212  
     axis -90 -7.62852e-016 -20   XYZ
    dof rx rz
    limits (-45.0 90.0)
           (-20.0 70.0)
  end
  begin
     id 10 
     name rtoes
     direction -1.53557e-011 -4.21867e-011 1   
     length 1.16246   
     axis -90 -7.62852e-016 -20   XYZ
    dof rx
    limits (-90.0 20.0)
  end
  begin
     id 11 
     name lowerback
     direction -0.0228371 0.999155 -0.034167   
     length 2.0537   
     axis 0 0 0   XYZ
    dof rx ry rz
    limits (-20.0 45.0)
           (-30.0 30.0)
           (-30.0 30.0)
  end
  begin
     id 12 
     name upperback
     direction 0.0198981 0.999794 0.00389455   
     length 2.05302   
     axis 0 0 0   XYZ
    dof rx ry rz
    limits (-20.0 45.0)
           (-30.0 30.0)
           (-30.0 30.0)
  end
  begin
     id 13 
     name thorax
     direction 0.0304566 0.99935 0.0192987   
     length 2.05315   
     axis 0 0 0   XYZ
    dof rx ry rz
    limits (-20.0 45.0)
           (-30.0 30.0)
           (-30.0 30.0)
  end
  begin
     id 14 
     name lowerneck
     direction -0.0196762 0.99417 0.106017   
     length 1.82056   
     axis 0 0 0   XYZ
    dof rx ry rz
    limits (-20.0 45.0)
           (-30.0 30.0)
           (-30.0 30.0)
  end
  begin
     id 15 
     name upperneck
     direction 0.00517787 0.9802 -0.197944   
     length 1.83835   
     axis 0 0 0   XYZ
    dof rx ry rz
    limits (-20.0 45.0)
           (-30.0 30.0)
           (-30.0 30.0)
  end
  begin
     id 16
     name head
     direction 0.00211419 0.996945 -0.078081  
     length 1.85629  
     axis 0 0 0   XYZ
    dof rx ry rz
    limits (-20.0 45.0)
           (-30.0 30.0)
           (-30.0 30.0)
  end
  begin
     id 17 
     name lclavicle
     direction 0.930001 0.365811 -0.0357824  
     length 3.81961  
     axis 0 0 0   XYZ
    dof ry rz
    limits (-20.0 10.0)
           (0.0 20.0)
  end
  begin
     id 18 
     name lhumerus
     direction 1 -4.48968e-011 -3.06644e-027   
     length 5.14507   
     axis 180 -30 -90   XYZ
    dof rx ry rz
    limits (-60.0 90.0)
           (-90.0 90.0)
           (-90.0 90.0)
  end
  begin
     id 19
     name lradius
     direction 1 -4.48965e-011 9.06925e-028   
     length 3.50646   
     axis 180 -30 -90   XYZ
    dof rx
    limits (-10.0 170.0)
  end
  begin
     id 20
     name lwrist
     direction 1 -4.48957e-011 1.03922e-027   
     length 1.75323   
     axis -2.56395e-016 90 90   XYZ
    dof ry
    limits (-180.0 0.0)
 end
  begin
     id 21 
     name lhand
     direction 1 -4.48967e-011 2.08017e-027   
     length 0.629969   
     axis -1.32723e-015 90 90   XYZ
    dof rx rz
    limits (-90.0 90.0)
           (-45.0 45.0)
  end
  begin
     id 22 
     name lfingers
     direction 1 -4.49089e-011 4.20095e-027   
     length 0.507897   
     axis -2.6545e-015 90 90   XYZ
    dof rx
    limits (0.0 90.0)
  end
  begin
     id 23
     name lthumb
     direction 0.707107 -6.35001e-011 0.707107   
     length 0.729241   
     axis -90 45 5.05613e-014   XYZ
    dof rx rz
    limits (-45.0 45.0)
           (-45.0 45.0)
  end
  begin
     id 24 
     name rclavicle
     direction -0.881882 0.464123 -0.0829113   
     length 3.47515  
     axis 0 0 0   XYZ 
    dof ry rz
    limits (-10.0 20.0)
           (-20.0 0.0)
  end
  begin
     id 25 
     name rhumerus
     direction -1 -4.48961e-011 -1.55672e-027  
     length 5.232   
     axis 180 30 90   XYZ
    dof rx ry rz
    limits (-90.0 60.0)
           (-90.0 90.0)
           (-90.0 90.0)
  end
  begin
     id 26 
     name rradius
     direction -1 -4.48963e-011 6.18178e-029   
     length 3.65641   
     axis 180 30 90   XYZ
    dof rx
    limits (-10.0 170.0)
  end
  begin
     id 27 
     name rwrist
     direction -1 -4.48982e-011 1.04136e-027   
     length 1.8282   
     axis -2.56395e-016 -90 -90   XYZ
    dof ry
    limits (-180.0 0.0)
  end
  begin
     id 28
     name rhand
     direction -1 -4.48929e-011 2.07378e-027   
     length 0.656807   
     axis -1.32723e-015 -90 -90   XYZ
    dof rx rz
    limits (-90.0 90.0)
           (-45.0 45.0)
  end
  begin
     id 29
     name rfingers
     direction -1 -4.489e-011 4.13816e-027   
     length 0.529535   
     axis -2.6545e-015 -90 -90   XYZ
    dof rx
    limits (0.0 90.0)
  end
  begin
     id 30
     name rthumb
     direction -0.707107 -6.34843e-011 0.707107   
     length 0.760309   
     axis -90 -45 -5.05613e-014   XYZ
    dof rx rz
    limits (-45.0 45.0)
           (-45.0 45.0)
  end
:hierarchy
  begin
    root lhipjoint rhipjoint lowerback
    lhipjoint lfemur
    lfemur ltibia
    ltibia lfoot
    lfoot ltoes
    rhipjoint rfemur
    rfemur rtibia
    rtibia rfoot
    rfoot rtoes
    lowerback upperback
    upperback thorax
    thorax lowerneck lclavicle rclavicle
    lowerneck upperneck
    upperneck head
    lclavicle lhumerus
    lhumerus lradius
    lradius lwrist
    lwrist lhand lthumb
    lhand lfingers
    rclavicle rhumerus
    rhumerus rradius
    rradius rwrist
    rwrist rhand rthumb
    rhand rfingers
  end

#!OML:ASF H:\ManfredETheater\Project 1\Capture day 1\Session 1\subject.ASF
:FULLY-SPECIFIED
:DEGREES
31
root -0.572369 15.7501 -29.1735 19.5824 0.949533 2.98203
lowerback 18.7166 -1.95045 -1.66148
upperback 0.388537 -2.75032 1.66827
thorax -9.9288 -1.17439 3.50623
lowerneck -22.0799 0.707139 -1.19824
upperneck 6.68297 1.58477 -2.47088
head 5.54652 0.531438 -0.432604
rclavicle -2.50469e-014 -7.15625e-015
rhumerus -63.0562 -4.53193 -72.9875
rradius 77.8143
rwrist -14.112
rhand -32.5337 4.72449
rfingers 7.12502
rthumb -5.76405 -25.1771
lclavicle -2.50469e-014 -7.15625e-015
lhumerus -34.5299 -22.3193 102.783
lradius 126.332
lwrist 12.6637
lhand -23.837 -13.3225
lfingers 7.12502
lthumb 2.63478 16.6409
rfemur -69.4183 -8.55747 4.6177
rtibia 64.6539
rfoot -8.85245 -6.3053
rtoes -43.6531
lfemur -19.5621 0.858887 -34.1606
ltibia 63.2085
lfoot -23.1211 -8.59689
ltoes -5.19012
32
root -0.516715 15.7649 -28.6204 19.0864 0.972366 2.96981
lowerback 18.5604 -2.20969 -1.2461
upperback 0.538009 -2.98271 1.85642
thorax -9.67066 -1.30715 3.5216
lowerneck -22.2101 0.988689 -1.08642
upperneck 7.13697 2.02096 -3.05911
head 5.7256 0.689465 -0.591016
rclavicle 5.76476e-015 -1.35174e-014
rhumerus -63.675 -4.55068 -71.778
rradius 78.8055
rwrist -13.8098
rhand -32.5093 4.77009
rfingers 7.12502
rthumb -5.74045 -25.1322
lclavicle 5.76476e-015 -1.35174e-014
lhumerus -34.6218 -22.8461 102.692
lradius 128.404
lwrist 12.8023
lhand -23.698 -13.5955
lfingers 7.12502
lthumb 2.76904 16.3662
rfemur -68.8552 -7.80326 3.23341
rtibia 60.2403
rfoot -6.26067 -4.39918
rtoes -45.1404
lfemur -17.4476 0.454562 -33.9611
ltibia 62.8261
lfoot -20.7273 -9.15135
ltoes -5.34781
33
root -0.46172 15.7657 -28.064 18.6027 1.01007 2.98838
lowerback 18.2982 -2.45632 -0.860361
upperback 0.697773 -3.20946 2.03221
thorax -9.34402 -1.43751 3.52988
lowerneck -22.2828 1.25149 -0.977649
upperneck 7.5754 2.43518 -3.63585
head 5.89447 0.836107 -0.747265
rclavicle 3.51849e-014 -5.1684e-015
rhumerus -64.1179 -4.47958 -70.6279
rradius 79.7803
rwrist -13.6938
rhand -32.5184 4.8262
rfingers 7.12502
rthumb -5.74922 -25.0758
lclavicle 3.51849e-014 -5.1684e-015
lhumerus -34.7428 -23.0884 102.594
lradius 130.018
lwrist 13.6064
lhand -23.6149 -13.7397
lfingers 7.12502
lthumb 2.8493 16.221
rfemur -68.1141 -7.09252 1.82786
rtibia 56.0197
rfoot -3.37113 -3.01034
rtoes -46.2966
lfemur -15.4938 -0.154434 -33.8637
ltibia 62.6513
lfoot -18.8963 -9.37641
ltoes -4.96914
34
root -0.407292 15.7523 -27.5054 18.1242 1.07407 3.04732
lowerback 17.9545 -2.68494 -0.517761
upperback 0.861981 -3.42731 2.19685
thorax -8.96846 -1.56267 3.53999
lowerneck -22.3038 1.48916 -0.876141
upperneck 8.00205 2.8202 -4.20258
head 6.05459 0.967922 -0.902177
rclavicle -2.44505e-014 1.39149e-014
rhumerus -64.3923 -4.32119 -69.5397
rradius 80.7335
rwrist -13.7101
rhand -32.5607 4.90597
rfingers 7.12502
rthumb -5.79009 -24.9949
lclavicle -2.44505e-014 1.39149e-014
lhumerus -34.8835 -23.0772 102.479
lradius 131.145
lwrist 14.8901
lhand -23.6478 -13.7489
lfingers 7.12502
lthumb 2.81746 16.2122
rfemur -67.2062 -6.44606 0.443302
rtibia 52.0617
rfoot -0.430593 -2.2715
rtoes -47.1121
lfemur -13.7027 -0.950641 -33.8952
ltibia 62.6843
lfoot -17.64 -9.25776
ltoes -4.37116
35
root -0.353627 15.7252 -26.9466 17.6441 1.17175 3.15663
lowerback 17.5665 -2.88826 -0.240622
upperback 1.01795 -3.63069 2.35363
thorax -8.57706 -1.67821 3.5693
lowerneck -22.2601 1.69473 -0.792383
upperneck 8.41027 3.16831 -4.75661
head 6.20083 1.08181 -1.05439
rclavicle 4.03533e-014 -6.75868e-015
rhumerus -64.521 -4.08044 -68.5076
rradius 81.6669
rwrist -13.7678
rhand -32.6382 5.01864
rfingers 7.12502
rthumb -5.86493 -24.8802
lclavicle 4.03533e-014 -6.75868e-015
lhumerus -35.0427 -22.8452 102.355
lradius 131.763
lwrist 16.3561
lhand -23.7892 -13.6442
lfingers 7.12502
lthumb 2.68096 16.3187
rfemur -66.1905 -5.88277 -0.876628
rtibia 48.5496
rfoot 2.22972 -2.2038
rtoes -47.6351
lfemur -12.127 -1.88164 -34.0709
ltibia 63.0297
lfoot -16.9162 -8.80511
ltoes -3.83423
36
root -0.301054 15.6863 -26.3893 17.1425 1.32978 3.33885
lowerback 17.1854 -3.06696 -0.0508808
upperback 1.16403 -3.82346 2.49871
thorax -8.1978 -1.78486 3.63054
lowerneck -22.1712 1.86113 -0.72595
upperneck 8.80476 3.46992 -5.29728
head 6.33674 1.17326 -1.20503
rclavicle -3.4191e-014 1.59028e-014
rhumerus -64.5131 -3.78647 -67.5295
rradius 82.5737
rwrist -13.7735
rhand -32.7199 5.17622
rfingers 7.12502
rthumb -5.94375 -24.7204
lclavicle -3.4191e-014 1.59028e-014
lhumerus -35.2028 -22.4433 102.219
lradius 131.861
lwrist 17.6648
lhand -24.0349 -13.4606
lfingers 7.12502
lthumb 2.44369 16.5051
rfemur -65.0923 -5.43111 -2.10787
rtibia 45.6396
rfoot 4.3688 -2.6267
rtoes -47.8292
lfemur -10.7917 -2.89259 -34.3945
ltibia 63.7409
lfoot -16.5845 -8.08483
ltoes -3.46676
